# Blender v3.1.2 OBJ File: 'avatar.blend'
# www.blender.org
mtllib avatar.mtl
o Cube_Cube.001
v -5.271137 2.293060 0.932724
v -5.271137 7.177525 0.932724
v -5.271137 2.293060 -1.096507
v -5.271137 7.177525 -1.096507
v -4.431381 2.293060 0.932724
v -4.431381 7.177525 0.932724
v -4.431381 2.293060 -1.096507
v -4.431381 7.177525 -1.096507
vt 0.375000 0.000000
vt 0.625000 0.000000
vt 0.625000 0.250000
vt 0.375000 0.250000
vt 0.625000 0.500000
vt 0.375000 0.500000
vt 0.625000 0.750000
vt 0.375000 0.750000
vt 0.625000 1.000000
vt 0.375000 1.000000
vt 0.125000 0.500000
vt 0.125000 0.750000
vt 0.875000 0.500000
vt 0.875000 0.750000
vn -0.5774 -0.5774 0.5774
vn -0.5774 0.5774 0.5774
vn -0.5774 0.5774 -0.5774
vn -0.5774 -0.5774 -0.5774
vn 0.5774 0.5774 -0.5774
vn 0.5774 -0.5774 -0.5774
vn 0.5774 0.5774 0.5774
vn 0.5774 -0.5774 0.5774
g Cube_Cube.001_None
usemtl None
s 1
f 1/1/1 2/2/2 4/3/3 3/4/4
f 3/4/4 4/3/3 8/5/5 7/6/6
f 7/6/6 8/5/5 6/7/7 5/8/8
f 5/8/8 6/7/7 2/9/2 1/10/1
f 3/11/4 7/6/6 5/8/8 1/12/1
f 8/5/5 4/13/3 2/14/2 6/7/7
o Cube.001_Cube.002
v 28.130692 27.687860 -26.253721
v 28.130692 91.388657 -26.253721
v 33.342087 27.687860 24.974649
v 33.342087 91.388657 24.974649
v -24.223274 27.687860 -20.927820
v -24.223274 91.388657 -20.927820
v -19.011879 27.687860 30.300550
v -19.011879 91.388657 30.300550
vt 0.375000 0.000000
vt 0.625000 0.000000
vt 0.625000 0.250000
vt 0.375000 0.250000
vt 0.625000 0.500000
vt 0.375000 0.500000
vt 0.625000 0.750000
vt 0.375000 0.750000
vt 0.625000 1.000000
vt 0.375000 1.000000
vt 0.125000 0.500000
vt 0.125000 0.750000
vt 0.875000 0.500000
vt 0.875000 0.750000
vn 0.5160 -0.5774 -0.6328
vn 0.5160 0.5774 -0.6328
vn 0.6328 0.5774 0.5160
vn 0.6328 -0.5774 0.5160
vn -0.5160 0.5774 0.6328
vn -0.5160 -0.5774 0.6328
vn -0.6328 0.5774 -0.5160
vn -0.6328 -0.5774 -0.5160
g Cube.001_Cube.002_Material.005
usemtl Material.005
s 1
f 9/15/9 10/16/10 12/17/11 11/18/12
f 11/18/12 12/17/11 16/19/13 15/20/14
f 15/20/14 16/19/13 14/21/15 13/22/16
f 13/22/16 14/21/15 10/23/10 9/24/9
f 11/25/12 15/20/14 13/22/16 9/26/9
f 16/19/13 12/27/11 10/28/10 14/21/15
o Cube.002_Cube.003
v 31.896683 35.049252 -15.831185
v 31.896683 84.127090 -15.831185
v 34.818092 35.049252 12.886468
v 34.818092 84.127090 12.886468
v 13.955682 35.049252 -14.006070
v 13.955682 84.127090 -14.006070
v 16.877090 35.049252 14.711583
v 16.877090 84.127090 14.711583
vt 0.375000 0.000000
vt 0.625000 0.000000
vt 0.625000 0.250000
vt 0.375000 0.250000
vt 0.625000 0.500000
vt 0.375000 0.500000
vt 0.625000 0.750000
vt 0.375000 0.750000
vt 0.625000 1.000000
vt 0.375000 1.000000
vt 0.125000 0.500000
vt 0.125000 0.750000
vt 0.875000 0.500000
vt 0.875000 0.750000
vn 0.5160 -0.5774 -0.6328
vn 0.5160 0.5774 -0.6328
vn 0.6328 0.5774 0.5160
vn 0.6328 -0.5774 0.5160
vn -0.5160 0.5774 0.6328
vn -0.5160 -0.5774 0.6328
vn -0.6328 0.5774 -0.5160
vn -0.6328 -0.5774 -0.5160
g Cube.002_Cube.003_Material.004
usemtl Material.004
s 1
f 17/29/17 18/30/18 20/31/19 19/32/20
f 19/32/20 20/31/19 24/33/21 23/34/22
f 23/34/22 24/33/21 22/35/23 21/36/24
f 21/36/24 22/35/23 18/37/18 17/38/17
f 19/39/20 23/34/22 21/36/24 17/40/17
f 24/33/21 20/41/19 18/42/18 22/35/23
o Cube.003_Cube.004
v -2.477696 64.491096 -18.047119
v -2.477696 85.734261 -18.047119
v 1.674455 64.491096 22.768810
v 1.674455 85.734261 22.768810
v -26.651676 64.491096 -15.587933
v -26.651676 85.734261 -15.587933
v -22.499523 64.491096 25.227997
v -22.499523 85.734261 25.227997
vt 0.375000 0.000000
vt 0.625000 0.000000
vt 0.625000 0.250000
vt 0.375000 0.250000
vt 0.625000 0.500000
vt 0.375000 0.500000
vt 0.625000 0.750000
vt 0.375000 0.750000
vt 0.625000 1.000000
vt 0.375000 1.000000
vt 0.125000 0.500000
vt 0.125000 0.750000
vt 0.875000 0.500000
vt 0.875000 0.750000
vn 0.5160 -0.5774 -0.6328
vn 0.5160 0.5774 -0.6328
vn 0.6328 0.5774 0.5160
vn 0.6328 -0.5774 0.5160
vn -0.5160 0.5774 0.6328
vn -0.5160 -0.5774 0.6328
vn -0.6328 0.5774 -0.5160
vn -0.6328 -0.5774 -0.5160
g Cube.003_Cube.004_Material.003
usemtl Material.003
s 1
f 25/43/25 26/44/26 28/45/27 27/46/28
f 27/46/28 28/45/27 32/47/29 31/48/30
f 31/48/30 32/47/29 30/49/31 29/50/32
f 29/50/32 30/49/31 26/51/26 25/52/25
f 27/53/28 31/48/30 29/50/32 25/54/25
f 32/47/29 28/55/27 26/56/26 30/49/31
o Cube.004_Cube.005
v 11.007332 -1.851076 -22.109905
v 11.007332 30.664286 -22.109905
v 12.885548 -1.851076 -3.646910
v 12.885548 30.664286 -3.646910
v -14.248672 -1.851076 -19.540646
v -14.248672 30.664286 -19.540646
v -12.370457 -1.851076 -1.077649
v -12.370457 30.664286 -1.077649
vt 0.375000 0.000000
vt 0.625000 0.000000
vt 0.625000 0.250000
vt 0.375000 0.250000
vt 0.625000 0.500000
vt 0.375000 0.500000
vt 0.625000 0.750000
vt 0.375000 0.750000
vt 0.625000 1.000000
vt 0.375000 1.000000
vt 0.125000 0.500000
vt 0.125000 0.750000
vt 0.875000 0.500000
vt 0.875000 0.750000
vn 0.5160 -0.5774 -0.6328
vn 0.5160 0.5774 -0.6328
vn 0.6328 0.5774 0.5160
vn 0.6328 -0.5774 0.5160
vn -0.5160 0.5774 0.6328
vn -0.5160 -0.5774 0.6328
vn -0.6328 0.5774 -0.5160
vn -0.6328 -0.5774 -0.5160
g Cube.004_Cube.005_Material.002
usemtl Material.002
s 1
f 33/57/33 34/58/34 36/59/35 35/60/36
f 35/60/36 36/59/35 40/61/37 39/62/38
f 39/62/38 40/61/37 38/63/39 37/64/40
f 37/64/40 38/63/39 34/65/34 33/66/33
f 35/67/36 39/62/38 37/64/40 33/68/33
f 40/61/37 36/69/35 34/70/34 38/63/39
o Cube.005_Cube.006
v 12.425971 -0.773811 1.892447
v 12.425971 29.265696 1.892447
v 14.640019 -0.773811 23.656685
v 14.640019 29.265696 23.656685
v -10.562451 -0.773811 4.231030
v -10.562451 29.265696 4.231030
v -8.348403 -0.773811 25.995270
v -8.348403 29.265696 25.995270
vt 0.375000 0.000000
vt 0.625000 0.000000
vt 0.625000 0.250000
vt 0.375000 0.250000
vt 0.625000 0.500000
vt 0.375000 0.500000
vt 0.625000 0.750000
vt 0.375000 0.750000
vt 0.625000 1.000000
vt 0.375000 1.000000
vt 0.125000 0.500000
vt 0.125000 0.750000
vt 0.875000 0.500000
vt 0.875000 0.750000
vn 0.5160 -0.5774 -0.6328
vn 0.5160 0.5774 -0.6328
vn 0.6328 0.5774 0.5160
vn 0.6328 -0.5774 0.5160
vn -0.5160 0.5774 0.6328
vn -0.5160 -0.5774 0.6328
vn -0.6328 0.5774 -0.5160
vn -0.6328 -0.5774 -0.5160
g Cube.005_Cube.006_Material.001
usemtl Material.001
s 1
f 41/71/41 42/72/42 44/73/43 43/74/44
f 43/74/44 44/73/43 48/75/45 47/76/46
f 47/76/46 48/75/45 46/77/47 45/78/48
f 45/78/48 46/77/47 42/79/42 41/80/41
f 43/81/44 47/76/46 45/78/48 41/82/41
f 48/75/45 44/83/43 42/84/42 46/77/47
o Cube.029_Cube.031
v 2.715657 -2.371735 -26.893642
v 2.715657 -2.371735 -26.893642
v 2.715657 -2.371735 -26.893642
v 2.715657 -2.371735 -26.893642
v 2.715657 -2.371735 -26.893642
v 2.715657 -2.371735 -26.893642
v 2.715657 -2.371735 -26.893642
v 2.715657 -2.371735 -26.893642
vt 0.375000 0.000000
vt 0.625000 0.000000
vt 0.625000 0.250000
vt 0.375000 0.250000
vt 0.625000 0.500000
vt 0.375000 0.500000
vt 0.625000 0.750000
vt 0.375000 0.750000
vt 0.625000 1.000000
vt 0.375000 1.000000
vt 0.125000 0.500000
vt 0.125000 0.750000
vt 0.875000 0.500000
vt 0.875000 0.750000
vn 0.0000 0.0000 1.0000
g Cube.029_Cube.031_None
usemtl None
s 1
f 49/85/49 50/86/49 52/87/49 51/88/49
f 51/88/49 52/87/49 56/89/49 55/90/49
f 55/90/49 56/89/49 54/91/49 53/92/49
f 53/92/49 54/91/49 50/93/49 49/94/49
f 51/95/49 55/90/49 53/92/49 49/96/49
f 56/89/49 52/97/49 50/98/49 54/91/49
